<svg xmlns="http://www.w3.org/2000/svg" width="1200" height="300" viewBox="0 0 1200 300">
  <defs>
    <linearGradient id="bg" x1="0" y1="0" x2="1" y2="1">
      <stop offset="0%" stop-color="#05070a"/>
      <stop offset="100%" stop-color="#0d1117"/>
    </linearGradient>
    <linearGradient id="blue" x1="0" y1="0" x2="1" y2="0">
      <stop offset="0%" stop-color="#1f6feb"/>
      <stop offset="100%" stop-color="#58a6ff"/>
    </linearGradient>
  </defs>
  <rect width="1200" height="300" rx="24" fill="url(#bg)"/>
  <g opacity="0.16" stroke="#58a6ff" stroke-width="1">
    <path d="M0 48H1200M0 96H1200M0 144H1200M0 192H1200M0 240H1200"/>
    <path d="M80 0V300M160 0V300M240 0V300M320 0V300M400 0V300M480 0V300M560 0V300M640 0V300M720 0V300M800 0V300M880 0V300M960 0V300M1040 0V300M1120 0V300"/>
  </g>
  <circle cx="1040" cy="72" r="118" fill="#1f6feb" opacity="0.08"/>
  <circle cx="1100" cy="190" r="78" fill="#58a6ff" opacity="0.08"/>
  <rect x="62" y="55" width="8" height="190" rx="4" fill="url(#blue)"/>
  <text x="105" y="128" fill="#f0f6fc" font-family="Arial, Helvetica, sans-serif" font-size="66" font-weight="800" letter-spacing="5">ENZO</text>
  <text x="108" y="169" fill="#58a6ff" font-family="Arial, Helvetica, sans-serif" font-size="21" font-weight="600" letter-spacing="2">RENEE-41</text>
  <text x="108" y="214" fill="#9da7b3" font-family="Arial, Helvetica, sans-serif" font-size="22">Auxiliar Financeiro  •  Estudante de TI</text>
  <text x="930" y="260" fill="#58a6ff" opacity="0.65" font-family="monospace" font-size="15">FINANCE × TECH × GAMES</text>
</svg>